<svg xmlns="http://www.w3.org/2000/svg" viewBox="0 0 284.936 284.936">
  <g fill="#00ff00" fill-rule="evenodd" transform="matrix(0.83148468,0,0,0.8121766,24.712221,28.871362)">
    <path d="M 277.515,135.9 144.464,2.857 C 142.565,0.955 140.375,0 137.9,0 c -2.472,0 -4.659,0.955 -6.562,2.857 l -14.277,14.275 c -1.903,1.903 -2.853,4.089 -2.853,6.567 0,2.478 0.95,4.664 2.853,6.567 L 229.268,142.47 117.062,254.677 c -1.903,1.903 -2.853,4.093 -2.853,6.564 0,2.477 0.95,4.667 2.853,6.57 l 14.277,14.271 c 1.902,1.905 4.089,2.854 6.562,2.854 2.478,0 4.665,-0.951 6.563,-2.854 L 277.515,149.038 c 1.902,-1.902 2.851,-4.093 2.851,-6.567 0,-2.474 -0.949,-4.664 -2.851,-6.571 z" />
    <path d="M 170.732,142.471 c 0,-2.474 -0.947,-4.665 -2.857,-6.571 L 34.833,2.857 C 32.931,0.955 30.741,0 28.267,0 25.793,0 23.602,0.955 21.7,2.857 L 7.426,17.133 C 5.52,19.036 4.57,21.222 4.57,23.7 c 0,2.478 0.95,4.664 2.856,6.567 L 119.63,142.471 7.426,254.677 c -1.906,1.903 -2.856,4.093 -2.856,6.564 0,2.477 0.95,4.667 2.856,6.57 l 14.273,14.271 c 1.903,1.905 4.093,2.854 6.567,2.854 2.474,0 4.664,-0.951 6.567,-2.854 L 167.875,149.038 c 1.91,-1.902 2.857,-4.093 2.857,-6.567 z" />
  </g>
</svg>